<?xml version="1.0" standalone="no"?>
<!DOCTYPE svg PUBLIC "-//W3C//DTD SVG 20010904//EN"
 "http://www.w3.org/TR/2001/REC-SVG-20010904/DTD/svg10.dtd">
<svg version="1.0" xmlns="http://www.w3.org/2000/svg"
 width="700.000000pt" height="700.000000pt" viewBox="0 0 700.000000 700.000000"
 preserveAspectRatio="xMidYMid meet">
<metadata>
Created by potrace 1.11, written by Peter Selinger 2001-2013
</metadata>
<g transform="translate(0.000000,700.000000) scale(0.100000,-0.100000)"
fill="#000000" stroke="none">
<path d="M2018 6105 c-2 -1 -34 -5 -71 -9 -89 -8 -133 -15 -182 -28 -22 -5
-50 -12 -62 -14 -55 -10 -253 -88 -331 -130 -279 -151 -474 -343 -659 -649
-90 -149 -196 -440 -228 -630 -3 -16 -10 -55 -15 -85 -5 -30 -12 -80 -15 -110
-3 -30 -8 -73 -11 -95 -6 -50 -5 -323 1 -390 8 -82 15 -148 19 -175 3 -14 7
-41 10 -60 40 -267 145 -584 283 -861 361 -725 1008 -1358 1873 -1832 181 -99
464 -232 679 -320 191 -77 231 -72 538 69 30 13 56 24 59 24 8 0 354 173 434
218 306 168 600 365 858 574 42 34 79 65 82 68 3 3 43 39 89 80 248 222 488
498 668 771 61 92 203 333 203 345 0 2 20 45 43 96 39 82 53 115 88 206 5 12
13 32 18 45 24 54 87 273 106 362 18 85 44 242 50 302 4 38 9 82 11 98 6 43 5
309 -1 380 -20 246 -80 493 -172 705 -182 423 -486 737 -876 904 -154 66 -296
101 -487 121 -57 6 -288 7 -317 1 -12 -3 -48 -7 -80 -11 -202 -21 -511 -122
-747 -242 -89 -46 -294 -166 -348 -205 l-27 -19 -88 59 c-258 172 -526 299
-778 367 -103 28 -117 31 -240 51 -74 13 -367 27 -377 19z m538 -1406 l29 -30
1 -1177 c2 -1280 4 -1216 -54 -1246 -47 -24 -115 0 -131 46 -16 45 -15 2351 0
2381 33 64 107 76 155 26z m2003 16 c16 -8 33 -27 40 -42 8 -21 11 -332 9
-1205 l-3 -1176 -23 -25 c-29 -31 -78 -39 -114 -21 -60 31 -57 -37 -55 1247
l2 1176 29 30 c33 35 70 40 115 16z m-2423 -376 c12 -6 27 -22 33 -36 16 -34
16 -1605 0 -1636 -17 -33 -51 -57 -82 -57 -35 0 -82 24 -93 47 -12 26 -14
1613 -2 1638 27 56 87 75 144 44z m816 0 c10 -6 24 -22 30 -37 14 -33 18
-1583 5 -1625 -12 -38 -53 -67 -94 -67 -44 0 -93 45 -94 87 0 15 -1 377 -1
803 0 508 3 784 10 801 19 48 90 67 144 38z m1206 0 c12 -8 26 -26 33 -40 8
-20 11 -251 10 -796 0 -422 0 -783 -1 -801 -1 -94 -141 -126 -182 -42 -19 39
-18 1614 1 1648 24 45 92 60 139 31z m824 -6 c9 -8 21 -27 26 -41 5 -15 8
-383 8 -822 -1 -858 1 -825 -53 -849 -39 -18 -80 -13 -110 13 l-28 24 -3 809
c-3 742 -2 811 14 840 27 51 103 65 146 26z m-1195 -215 c17 -19 18 -53 21
-620 3 -664 6 -625 -62 -668 l-36 -22 -36 22 c-67 42 -63 5 -63 660 0 576 1
595 20 622 36 50 113 53 156 6z m1614 -174 l23 -24 1 -413 c0 -226 -3 -428 -7
-447 -8 -38 -36 -67 -75 -76 -35 -9 -91 20 -104 53 -8 19 -11 170 -12 450 0
385 1 423 17 448 38 58 107 62 157 9z m-3660 7 c23 -23 29 -39 30 -73 0 -54 0
-702 -1 -780 0 -47 -4 -61 -25 -82 -14 -14 -37 -29 -51 -32 -36 -9 -92 20
-107 55 -9 20 -12 145 -12 456 l1 427 32 29 c44 40 93 40 133 0z m1619 -27
l25 -24 1 -405 c2 -367 0 -408 -16 -437 -32 -61 -124 -64 -160 -5 -19 30 -20
52 -20 433 0 395 0 402 21 428 40 51 103 55 149 10z"/>
</g>
</svg>
