<svg xmlns="http://www.w3.org/2000/svg" width="458.611" height="450" viewBox="0 0 458.611 450"><defs><style>.a{fill:#e6e6e6;}.b{fill:#fff;}.c{fill:#3f3d56;}.d{fill:#e07c7c;}.e{fill:#ffb8b8;}.f{fill:#2f2e41;}</style></defs><path class="a" d="M299.833,78.134A19.384,19.384,0,0,0,280.471,97.5V507.983a19.384,19.384,0,0,0,19.362,19.362h179.7A19.384,19.384,0,0,0,498.9,507.983V97.5a19.384,19.384,0,0,0-19.362-19.362Z" transform="translate(-244.499 -78.134)"/><path class="b" d="M567.052,189.844V156.9a75.781,75.781,0,0,1-48.924-36.418h0a14.394,14.394,0,0,1-8.6,2.832H483.368A108.032,108.032,0,0,0,567.052,189.844Z" transform="translate(-324.631 -94.861)"/><path class="b" d="M590.673,145.4V113.753a17.62,17.62,0,0,0-17.625-17.625H547.654v3.056a14.471,14.471,0,0,1-4.477,10.485,74,74,0,0,0,47.5,35.728Z" transform="translate(-348.253 -85.241)"/><path class="b" d="M372.583,113.7H356.228a14.514,14.514,0,0,1-14.509-14.515V96.128H317.891a17.624,17.624,0,0,0-17.625,17.627v392.2a17.594,17.594,0,0,0,17.625,17.613H477.112a17.15,17.15,0,0,0,2.172-.133,17.635,17.635,0,0,0,15.453-17.48V217.235A144.93,144.93,0,0,1,372.583,113.7Z" transform="translate(-252.316 -85.241)"/><path class="b" d="M457.52,125.168H422.947A143.087,143.087,0,0,0,543.19,226.859v-33.29A109.919,109.919,0,0,1,457.52,125.168Z" transform="translate(-300.769 -96.71)"/><path class="a" d="M493.02,580.514H329.655a3.029,3.029,0,0,1-3.025-3.025V536.965a3.029,3.029,0,0,1,3.025-3.025H493.02a3.029,3.029,0,0,1,3.025,3.025v40.524A3.029,3.029,0,0,1,493.02,580.514ZM329.655,535.15a1.817,1.817,0,0,0-1.815,1.815v40.524a1.818,1.818,0,0,0,1.815,1.815H493.02a1.817,1.817,0,0,0,1.815-1.815V536.965a1.817,1.817,0,0,0-1.815-1.815Z" transform="translate(-262.729 -258.151)"/><circle class="c" cx="12.706" cy="12.706" r="12.706" transform="translate(75.397 286.369)"/><path class="a" d="M413.747,558.427a2.118,2.118,0,0,0,0,4.236h99.834a2.118,2.118,0,0,0,0-4.235Z" transform="translate(-296.299 -267.822)"/><path class="a" d="M413.747,579.427a2.118,2.118,0,1,0,0,4.235h99.834a2.118,2.118,0,1,0,0-4.235Z" transform="translate(-296.299 -276.116)"/><path class="a" d="M493.02,692.514H329.655a3.029,3.029,0,0,1-3.025-3.025V648.965a3.029,3.029,0,0,1,3.025-3.025H493.02a3.029,3.029,0,0,1,3.025,3.025v40.524A3.029,3.029,0,0,1,493.02,692.514ZM329.655,647.15a1.817,1.817,0,0,0-1.815,1.815v40.524a1.817,1.817,0,0,0,1.815,1.815H493.02a1.817,1.817,0,0,0,1.815-1.815V648.965a1.817,1.817,0,0,0-1.815-1.815Z" transform="translate(-262.729 -302.385)"/><circle class="c" cx="12.706" cy="12.706" r="12.706" transform="translate(75.397 354.136)"/><path class="a" d="M413.747,670.427a2.118,2.118,0,0,0,0,4.235h99.834a2.118,2.118,0,0,0,0-4.235Z" transform="translate(-296.299 -312.056)"/><path class="a" d="M413.747,691.427a2.118,2.118,0,0,0,0,4.236h99.834a2.118,2.118,0,0,0,0-4.235Z" transform="translate(-296.299 -320.35)"/><path class="a" d="M423.428,396.891a57.456,57.456,0,0,1-57.48-57.48c0-.12,0-.247.007-.367a57.479,57.479,0,1,1,83,51.885,56.941,56.941,0,0,1-25.524,5.963Zm0-113.75a56.39,56.39,0,0,0-56.264,55.941c-.006.128-.006.232-.006.329a56.277,56.277,0,1,0,56.27-56.27Z" transform="translate(-278.257 -158.622)"/><path class="d" d="M477.1,366.6l-39.342-22.714a1.21,1.21,0,0,0-1.815,1.048v45.429a1.21,1.21,0,0,0,1.815,1.048L477.1,368.693a1.21,1.21,0,0,0,0-2.1l-39.342-22.714a1.21,1.21,0,0,0-1.815,1.048v45.429a1.21,1.21,0,0,0,1.815,1.048L477.1,368.693a1.21,1.21,0,0,0,0-2.1Z" transform="translate(-305.903 -183.026)"/><path class="e" d="M838.1,350.658l-26.623,3.025c.364-8.178-.328-15.805-3.025-22.387l21.782-7.866C828.278,331.573,831.943,340.862,838.1,350.658Z" transform="translate(-453.019 -175.012)"/><path class="e" d="M849.277,458.108,857.9,473.5a8,8,0,0,1-3.173,10.945h0a8,8,0,0,1-11.768-6.277l-1.4-14.712L836.779,407.3l-8.149-36.936,16.92-4.8,7.876,41.536Z" transform="translate(-460.99 -191.652)"/><path class="f" d="M822.862,658.7,811.97,658.1l-24.2-107.7L736.338,658.7l-10.891-.605,31.463-167,.6-30.253,39.329-2.42c14.7,16.165,23.024,32.883,24.2,50.22Z" transform="translate(-420.239 -228.329)"/><path class="f" d="M726.211,805.51c-2.062.941-4.044-6.908-5.527-4.973-4.983,6.5-16.584,4.459-16.532,3.708a3.041,3.041,0,0,1-1.917-3.962h0a3.04,3.04,0,0,1,2.109-1.882l5.173-1.293,8.122-14.284,8.292-.56h0a19.809,19.809,0,0,1,3.664,16.9C728.842,802.234,727.681,804.839,726.211,805.51Z" transform="translate(-410.995 -356.225)"/><path class="f" d="M868.292,805.144c-2.062.941-4.043-6.907-5.527-4.973-5.741,7.481-16.919,4.9-16.533,3.709a3.041,3.041,0,0,1-1.917-3.962h0a3.04,3.04,0,0,1,2.11-1.882l5.173-1.293,8.122-14.284,8.852-1.12.224.365a22.823,22.823,0,0,1,2.446,18.662C870.5,802.724,869.5,804.592,868.292,805.144Z" transform="translate(-467.108 -355.859)"/><circle class="e" cx="18.757" cy="18.757" r="18.757" transform="translate(342.117 124.216)"/><path class="d" d="M815.753,419.2l-40.539,2.42-3.63-22.992c-3.758-10.335.939-19.83,8.471-29.043l15.731-17.547,21.782-.605h0a16.269,16.269,0,0,1,11.07,13.461A64.4,64.4,0,0,1,821.9,402.3Z" transform="translate(-437.938 -186.07)"/><path class="e" d="M763.97,489.979l2.9,17.4a8,8,0,0,1-6.692,9.223h0a8,8,0,0,1-8.948-9.891l3.663-14.317,14.521-54.455,4.841-37.513,17.547,1.21-6.656,41.749Z" transform="translate(-430.323 -205.423)"/><path class="f" d="M827.846,369.357h-.434c-8.182-7.089-15.292-15.037-9.55-24.986-4.87-12.36-10.3-25.195-9.97-33.135a23.286,23.286,0,0,0-5.29-16.19c-5.175-6.045-6.326-8.744-15.777-6.458h0a17.908,17.908,0,0,1,18.557-18.145l5.9.215c4.517.164,18.952,2.011,22.052,4.991a14.38,14.38,0,0,1,4.116,12.091,14.14,14.14,0,0,0,5.13,12.929c7.953,8.224,11.233,16.757,6.724,25.806-3.4,9.579-3.241,17.464,5.538,21.255h0C857.7,358.672,839.154,369.357,827.846,369.357Z" transform="translate(-444.479 -154.08)"/><path class="d" d="M806.835,388.743c-7.511-5.746-14.975-6.2-22.387-.605l2.024-22.976a12.492,12.492,0,0,1,11.9-12.694h0a12.492,12.492,0,0,1,13.085,12.687Z" transform="translate(-443.541 -186.475)"/><ellipse class="e" cx="2.42" cy="4.538" rx="2.42" ry="4.538" transform="translate(358.756 142.065)"/><path class="d" d="M815.919,288.873V268.745a1.815,1.815,0,0,0-1.815-1.815h-3.63a1.815,1.815,0,0,0-1.815,1.815v18.914a11.473,11.473,0,1,0,7.261,1.214Z" transform="translate(-449.297 -152.698)"/><circle class="b" cx="5.446" cy="5.446" r="5.446" transform="translate(356.336 140.855)"/><path class="c" d="M458.372,742.87H0v-1.319H458.611Z" transform="translate(0 -292.87)"/></svg>