<svg xmlns="http://www.w3.org/2000/svg" width="28" height="27.307" viewBox="0 0 28 27.307"><defs><style>.a{fill:#fff;}</style></defs><path class="a" d="M14,.445A14,14,0,0,0,9.572,27.728c.7.132.957-.3.957-.673,0-.333-.012-1.213-.018-2.38C6.617,25.519,5.8,22.8,5.8,22.8a3.711,3.711,0,0,0-1.557-2.047c-1.268-.868.1-.851.1-.851A2.936,2.936,0,0,1,6.481,21.34,2.983,2.983,0,0,0,10.558,22.5a2.985,2.985,0,0,1,.887-1.873c-3.109-.35-6.377-1.554-6.377-6.918A5.4,5.4,0,0,1,6.509,9.957a4.978,4.978,0,0,1,.123-3.705s1.173-.376,3.85,1.435a13.2,13.2,0,0,1,7,0c2.66-1.811,3.832-1.435,3.832-1.435a5.115,5.115,0,0,1,.14,3.705,5.423,5.423,0,0,1,1.435,3.757c0,5.378-3.273,6.563-6.388,6.907a3.352,3.352,0,0,1,.945,2.59c0,1.874-.017,3.379-.017,3.834,0,.368.245.805.962.665A13.983,13.983,0,0,0,14,.445" transform="translate(0 -0.445)"/></svg>