<svg xmlns="http://www.w3.org/2000/svg" width="385.156" height="60.788" viewBox="0 0 385.156 60.788"><defs><style>.a,.b{fill:#fff;}.a{stroke:#fff;}</style></defs><path class="a" d="M4.8,0h8.96V-14.464c0-4.1-.832-11.2-1.344-15.3h.256L16-18.88,21.568-3.52H27.2l5.632-15.36,3.456-10.88h.256c-.512,4.1-1.344,11.2-1.344,15.3V0h9.024V-41.664H33.344L27.008-23.552c-.832,2.432-1.472,4.928-2.24,7.552h-.256c-.768-2.624-1.472-5.12-2.24-7.552L15.68-41.664H4.8ZM61.12.768c3.584,0,6.464-1.6,9.088-3.968h.256l.7,3.2h8.064V-18.048c0-9.984-4.608-14.528-12.8-14.528a25.881,25.881,0,0,0-13.7,4.16l3.456,6.4c3.2-1.792,5.76-2.688,8.32-2.688,3.264,0,4.608,1.536,4.864,4.16C56.832-19.264,51.648-15.616,51.648-8.9,51.648-3.584,55.3.768,61.12.768Zm3.392-7.68c-2.176,0-3.392-.9-3.392-2.752,0-2.24,1.92-3.968,8.256-4.8v5.056C67.84-7.872,66.5-6.912,64.512-6.912ZM98.24.768a20.07,20.07,0,0,0,7.232-1.28l-1.536-6.912a8.616,8.616,0,0,1-2.944.448c-2.368,0-4.032-1.344-4.032-4.928v-12.16h7.488v-7.744H96.96v-9.728H88.768l-1.152,9.728-4.864.32v7.424H87.04v12.288C87.04-4.288,90.3.768,98.24.768Zm25.152,0a15.528,15.528,0,0,0,10.5-3.776l-3.84-6.208a8.906,8.906,0,0,1-5.5,1.984c-3.9,0-6.848-3.392-6.848-8.7,0-5.248,2.752-8.7,7.168-8.7a6.555,6.555,0,0,1,4.1,1.536l4.608-6.08a13.7,13.7,0,0,0-9.28-3.392c-8.832,0-16.7,6.08-16.7,16.64S114.432.768,123.392.768Zm16-.768h9.856V-21.312c1.984-1.792,3.328-2.88,5.568-2.88,2.56,0,3.712,1.344,3.712,5.76V0h9.92V-19.712c0-7.936-2.944-12.864-9.856-12.864-4.352,0-7.424,2.176-9.792,4.288l.448-5.7V-44.736h-9.856Zm36.8,0h9.856V-21.312c1.92-1.92,3.648-2.88,5.12-2.88,2.56,0,3.712,1.344,3.712,5.76V0h9.92V-21.312c1.92-1.92,3.584-2.88,5.12-2.88,2.5,0,3.712,1.344,3.712,5.76V0h9.856V-19.712c0-7.936-3.072-12.864-9.984-12.864-4.224,0-7.168,2.432-9.92,5.248-1.6-3.392-4.352-5.248-8.768-5.248-4.224,0-7.04,2.176-9.6,4.736h-.256l-.7-3.968h-8.064Zm69.44.768a20.507,20.507,0,0,0,11.456-3.584l-3.2-5.952a13.806,13.806,0,0,1-6.848,1.984c-4.032,0-7.04-1.856-7.936-6.144h18.752a23.083,23.083,0,0,0,.384-4.352c0-8.64-4.48-15.3-13.7-15.3-7.616,0-15.04,6.336-15.04,16.64C229.5-5.312,236.544.768,245.632.768Zm-6.656-20.352c.64-3.712,3.008-5.5,5.824-5.5,3.584,0,4.992,2.368,4.992,5.5ZM265.92,0h9.92V-24.064h5.632v-7.744H275.84v-1.6c0-3.136,1.344-4.352,3.52-4.352a11.04,11.04,0,0,1,3.2.448l1.856-7.04a17.706,17.706,0,0,0-6.464-1.152c-8.9,0-12.032,5.7-12.032,12.416v1.344l-4.224.256v7.424h4.224Zm24.448,12.288c7.616,0,11.008-4.032,14.144-12.224l10.944-31.872h-9.472l-3.648,13.184c-.832,3.008-1.472,6.016-2.176,9.024H299.9c-.832-3.136-1.536-6.08-2.432-9.024L293.12-31.808H283.2L295.424-.9,294.976.64a5.164,5.164,0,0,1-5.376,3.9,7.647,7.647,0,0,1-2.112-.32l-1.728,7.3A11.51,11.51,0,0,0,290.368,12.288Z" transform="translate(69 48)"/><path class="b" d="M63.524,13.709C61.634,4.452,54.867-1.53,46.286-1.53,41.742-1.53,36.817.216,32,3.527,27.123.07,22.291-1.684,17.627-1.684,9-1.684,2.26,4.363.465,13.718-2.173,27.3,6.2,45.321,30.84,54.981c.018.007.035.014.054.019a3.052,3.052,0,0,0,2.2,0l.061-.022c11.311-4.527,20.082-11.162,25.367-19.185,4.639-7.043,6.415-14.883,5-22.076ZM13.949,29.966a1.027,1.027,0,0,1-2.054,0V21.527a1.027,1.027,0,0,1,2.054,0ZM18.2,33.871a1.027,1.027,0,0,1-2.054,0V17.621a1.027,1.027,0,0,1,2.054,0Zm4.255,3.905a1.027,1.027,0,0,1-2.054,0V13.716a1.027,1.027,0,0,1,2.054,0Zm4.255-3.905a1.027,1.027,0,0,1-2.054,0V17.621a1.027,1.027,0,0,1,2.054,0ZM30.822,29.7a1.027,1.027,0,0,1-2.054,0V21.8a1.027,1.027,0,0,1,2.054,0Zm4.4,2.066c0,.561-1.027,1.015-1.027,1.015s-1.027-.454-1.027-1.015V19.731a1.027,1.027,0,0,1,2.054,0Zm4.108,2.11a1.027,1.027,0,0,1-2.054,0V17.621a1.027,1.027,0,0,1,2.054,0Zm4.255,3.905a1.027,1.027,0,0,1-2.054,0V13.716a1.027,1.027,0,0,1,2.054,0Zm4.255-3.905a1.027,1.027,0,0,1-2.054,0V17.621a1.027,1.027,0,0,1,2.054,0ZM52.1,29.966a1.027,1.027,0,0,1-2.055,0V21.527a1.027,1.027,0,0,1,2.055,0Zm0,0" transform="translate(0.001 1.684)"/></svg>