<svg xmlns="http://www.w3.org/2000/svg" width="386" height="92" viewBox="0 0 386 92"><defs><style>.a,.b{fill:#fff;}.a{font-size:64px;font-family:SourceSansPro-Bold, Source Sans Pro;font-weight:700;}</style></defs><text class="a" transform="translate(69 66)"><tspan x="0" y="0">Matchmefy</tspan></text><path class="b" d="M63.524,13.709C61.634,4.452,54.867-1.53,46.286-1.53,41.742-1.53,36.817.216,32,3.527,27.123.07,22.291-1.684,17.627-1.684,9-1.684,2.26,4.363.465,13.718-2.173,27.3,6.2,45.321,30.84,54.981c.018.007.035.014.054.019a3.052,3.052,0,0,0,2.2,0l.061-.022c11.311-4.527,20.082-11.162,25.367-19.185,4.639-7.043,6.415-14.883,5-22.076ZM13.949,29.966a1.027,1.027,0,0,1-2.054,0V21.527a1.027,1.027,0,0,1,2.054,0ZM18.2,33.871a1.027,1.027,0,0,1-2.054,0V17.621a1.027,1.027,0,0,1,2.054,0Zm4.255,3.905a1.027,1.027,0,0,1-2.054,0V13.716a1.027,1.027,0,0,1,2.054,0Zm4.255-3.905a1.027,1.027,0,0,1-2.054,0V17.621a1.027,1.027,0,0,1,2.054,0ZM30.822,29.7a1.027,1.027,0,0,1-2.054,0V21.8a1.027,1.027,0,0,1,2.054,0Zm4.4,2.066c0,.561-1.027,1.015-1.027,1.015s-1.027-.454-1.027-1.015V19.731a1.027,1.027,0,0,1,2.054,0Zm4.108,2.11a1.027,1.027,0,0,1-2.054,0V17.621a1.027,1.027,0,0,1,2.054,0Zm4.255,3.905a1.027,1.027,0,0,1-2.054,0V13.716a1.027,1.027,0,0,1,2.054,0Zm4.255-3.905a1.027,1.027,0,0,1-2.054,0V17.621a1.027,1.027,0,0,1,2.054,0ZM52.1,29.966a1.027,1.027,0,0,1-2.055,0V21.527a1.027,1.027,0,0,1,2.055,0Zm0,0" transform="translate(0.001 19.684)"/></svg>