<svg xmlns="http://www.w3.org/2000/svg" width="45" height="40" viewBox="0 0 45 40"><defs><style>.a{fill:#fff;}</style></defs><path class="a" d="M44.665,9.139C43.336,2.63,38.578-1.576,32.544-1.576A18.069,18.069,0,0,0,22.5,1.98,17.6,17.6,0,0,0,12.394-1.684C6.326-1.684,1.589,2.568.326,9.146c-1.854,9.547,4.03,22.221,21.358,29.013l.038.013a2.146,2.146,0,0,0,1.549,0l.043-.015c7.953-3.183,14.12-7.848,17.836-13.49A20.986,20.986,0,0,0,44.667,9.144ZM9.808,20.57a.722.722,0,0,1-1.444,0V14.636a.722.722,0,0,1,1.444,0ZM12.8,23.316a.722.722,0,0,1-1.444,0V11.89a.722.722,0,0,1,1.444,0Zm2.992,2.746a.722.722,0,0,1-1.444,0V9.144a.722.722,0,0,1,1.444,0Zm2.992-2.746a.722.722,0,0,1-1.444,0V11.89a.722.722,0,0,1,1.444,0Zm2.889-2.936a.722.722,0,0,1-1.444,0V14.826a.722.722,0,0,1,1.444,0Zm3.1,1.452c0,.394-.722.713-.722.713s-.722-.319-.722-.713V13.373a.722.722,0,0,1,1.444,0Zm2.889,1.484a.722.722,0,0,1-1.444,0V11.89a.722.722,0,0,1,1.444,0Zm2.992,2.746a.722.722,0,0,1-1.444,0V9.144a.722.722,0,0,1,1.444,0Zm2.992-2.746a.722.722,0,0,1-1.444,0V11.89a.722.722,0,0,1,1.444,0Zm2.992-2.746a.722.722,0,0,1-1.445,0V14.636a.722.722,0,0,1,1.445,0Zm0,0" transform="translate(0.001 1.684)"/></svg>