<svg xmlns="http://www.w3.org/2000/svg" width="640" height="450.135" viewBox="0 0 640 450.135"><defs><style>.a{fill:#f2f2f2;}.b{fill:#e07c7c;}.c,.i{fill:#3f3d56;}.d{opacity:0.1;}.e{fill:#2f2e41;}.f{fill:#a0616a;}.g{fill:#d0cde1;}.h{fill:#bd6969;}.i{opacity:0.4;}</style></defs><g transform="translate(1399.19 -98.182)"><g transform="translate(-1399.19 98.182)"><circle class="a" cx="186.366" cy="186.366" r="186.366" transform="translate(98.885 72.499)"/><path class="b" d="M941.6,244.169l-19.443,23.052c-1.049,9.929-2.537,21.024-4.646,32.663l31.944-33.048.15.577a89.715,89.715,0,0,0-8.183-23.79Z" transform="translate(-405.835 -122.533)"/><path class="b" d="M926.365,249.757,945.2,227.428c-4.11-7.642-9.316-13.746-15.537-17.752-.323-.209-.65-.4-.976-.6C928.691,211.79,928.612,227.722,926.365,249.757Z" transform="translate(-409.865 -106.812)"/><path class="b" d="M932.038,405.152l.04.669q1.635-6.146,2.795-12.308l-46.325,29.91-.031-.3q-1.314,3.579-2.7,7.025Z" transform="translate(-391.412 -190.744)"/><path class="b" d="M945.722,320.984l.094.634a141,141,0,0,0-2.351-33.2l-32.553,33.677q-3.039,16.35-7.157,31.122Z" transform="translate(-399.576 -142.918)"/><path class="b" d="M819.664,244.779a117.768,117.768,0,0,0-12.429,20.214l53.653,61.247c2.209-8.59,3.99-16.921,5.424-24.689l-46.93-56.164Z" transform="translate(-355.653 -123.059)"/><path class="b" d="M800.279,290.781l.273-.614,55.1,61.13q.889-3.14,1.7-6.246L803.5,283.579l.277-.612Q801.95,286.74,800.279,290.781Z" transform="translate(-352.488 -140.438)"/><path class="b" d="M937.627,372.578l.065.654a168.367,168.367,0,0,0,2.6-22.548l-42.535,32.669q-2.8,9.835-6.07,18.886Z" transform="translate(-394.085 -171.254)"/><path class="b" d="M842.927,488.94A137.356,137.356,0,0,1,818.5,520.633c10.006-4.036,50.318-21.816,71.21-53.879Z" transform="translate(-360.781 -224.074)"/><path class="b" d="M784.076,354.407a162.98,162.98,0,0,0-.938,21.785l.336-.652,43.213,60.619a202.655,202.655,0,0,0,10.6-21.831Z" transform="translate(-344.666 -172.948)"/><path class="b" d="M901.317,245.968c2.424-23.841,2.294-40.454,2.292-40.692l.412-.167c-9.729-5.64-20.479-5.443-30.95-.431Z" transform="translate(-385.612 -103.091)"/><path class="b" d="M875.745,442.869c-.292.71-.582,1.424-.879,2.126a201.127,201.127,0,0,1-9.583,19.685L911.627,442.7l.023.657a79.751,79.751,0,0,0,8.623-18.192q1.217-3.78,2.246-7.587Z" transform="translate(-382.069 -201.696)"/><path class="b" d="M877.292,283.4c2.077-11.508,3.544-22.473,4.579-32.286l-28.894-42.238.3-.577c-7.869,3.891-15.565,10.5-22.537,19.394Z" transform="translate(-366.351 -106.457)"/><path class="b" d="M826.1,456.229l-42.9-60.176c1.034,43.62,15.927,90.173,16.888,93.133C810.4,479.961,818.971,468.62,826.1,456.229Z" transform="translate(-344.719 -191.9)"/><path class="b" d="M838.772,387.582l.044-.024a273.369,273.369,0,0,0,9.6-27.811l-55.233-61.281q-2.238,5.484-4.159,11.427a97.936,97.936,0,0,0-3.767,17.425Z" transform="translate(-345.649 -147.491)"/><path class="b" d="M996.753,572.825l-29.677,5.353c-7.141,6.978-15.363,14.574-24.411,22.193l45.681-5.079-.253.54a89.706,89.706,0,0,0,8.871-23.542Z" transform="translate(-417.283 -272.1)"/><path class="b" d="M989.756,555.915l28.748-5.185c1.708-8.508,1.592-16.53-.645-23.582-.116-.367-.242-.726-.368-1.084C1015.763,528.157,1005.541,540.377,989.756,555.915Z" transform="translate(-438.712 -251.064)"/><path class="b" d="M897.17,698.461l-.4.541q5.18-3.691,10-7.7l-54.756-6.511.171-.254q-3.295,1.919-6.561,3.687Z" transform="translate(-373.126 -323.182)"/><path class="b" d="M946.389,643.034l-.332.548a140.985,140.985,0,0,0,19.365-27.07l-46.552,5.175q-12.768,10.654-25.363,19.4Z" transform="translate(-394.913 -292.224)"/><path class="b" d="M921.653,489.409a117.74,117.74,0,0,0-22.466,7.641l2.259,81.392c7.181-5.207,13.865-10.487,19.924-15.556l-.323-73.19Z" transform="translate(-397.498 -234.383)"/><path class="b" d="M883.987,507.718l.6-.3,3.445,82.224q2.688-1.851,5.295-3.725l-2.268-81.693.6-.295Q887.851,505.671,883.987,507.718Z" transform="translate(-390.58 -240.992)"/><path class="b" d="M914.3,680.7l-.367.546a168.412,168.412,0,0,0,16.384-15.708l-53.6-1.968q-8.431,5.787-16.721,10.675Z" transform="translate(-379.665 -313.639)"/><path class="b" d="M765.909,712.955a137.323,137.323,0,0,1-39.024,8.832c10.281,3.274,52.669,15.292,89.21,3.922Z" transform="translate(-319.088 -336.113)"/><path class="b" d="M819.583,545.049a162.906,162.906,0,0,0-14.617,16.181l.675-.288-5.382,74.25a202.46,202.46,0,0,0,22.092-10.051Z" transform="translate(-352.478 -259.703)"/><path class="b" d="M988.711,538.215c17.074-16.816,27.569-29.694,27.719-29.879l.424.134c-3.9-10.548-12.3-17.254-23.563-20.072Z" transform="translate(-438.237 -233.923)"/><path class="b" d="M824.182,692.962c-.678.361-1.357.726-2.034,1.077a201.283,201.283,0,0,1-19.936,9.049l49.71,12.633-.4.521a79.773,79.773,0,0,0,18.244-8.512q3.349-2.134,6.569-4.411Z" transform="translate(-353.367 -327.014)"/><path class="b" d="M941.844,560.133c8.939-7.539,17.063-15.049,24.119-21.946l4.686-50.961.6-.25c-8.542-2.021-18.686-1.839-29.728.563Z" transform="translate(-416.764 -232.644)"/><path class="b" d="M763.77,649.753l5.343-73.706c-27.026,34.255-45.247,79.609-46.4,82.5C736.536,658.014,750.373,654.747,763.77,649.753Z" transform="translate(-317.191 -273.81)"/><path class="b" d="M840.687,609.183l.05.01a273.269,273.269,0,0,0,25.128-15.3l-3.454-82.426q-5.222,2.8-10.491,6.148A97.948,97.948,0,0,0,837.9,528.634Z" transform="translate(-369.609 -244.421)"/><path class="b" d="M749.579,390.779l-11.365,27.933c2.071,9.767,4.085,20.778,5.678,32.5l20.165-41.3.321.5a89.69,89.69,0,0,0-15.136-20.1Z" transform="translate(-324.243 -189.288)"/><path class="b" d="M728.883,406.375l11.01-27.057c-6.272-6-13.11-10.194-20.264-12.081-.372-.1-.743-.185-1.113-.269C719.36,369.547,724.209,384.724,728.883,406.375Z" transform="translate(-315.279 -178.664)"/><path class="b" d="M789.922,540.343l.245.624q-.345-6.351-1.146-12.569l-34.812,42.764-.123-.28q-.144,3.81-.4,7.516Z" transform="translate(-331.285 -252.126)"/><path class="b" d="M781.841,458.479l.285.574a140.99,140.99,0,0,0-12.5-30.848l-20.549,42.09q2.163,16.489,2.813,31.811Z" transform="translate(-329.188 -206.531)"/><path class="b" d="M629.242,432.012a117.736,117.736,0,0,0-5.572,23.066l69.957,41.663c-.554-8.852-1.436-17.325-2.474-25.157l-61.992-38.908Z" transform="translate(-272.118 -208.263)"/><path class="b" d="M621.825,484.058l.07-.668L693.19,524.5q-.125-3.261-.312-6.466l-70.215-41.817.074-.667Q622.165,479.7,621.825,484.058Z" transform="translate(-271.278 -228.075)"/><path class="b" d="M788.967,507.753l.264.6a168.463,168.463,0,0,0-4.5-22.248l-30.354,44.216q.375,10.219.065,19.838Z" transform="translate(-331.6 -232.88)"/><path class="b" d="M735.526,641.853a137.34,137.34,0,0,1-13.431,37.689c8.269-6.931,41.111-36.3,51.069-73.251Z" transform="translate(-316.908 -287.573)"/><path class="b" d="M624.847,550.225a162.892,162.892,0,0,0,5.842,21.008l.118-.724L690.641,614.8a202.526,202.526,0,0,0,3.337-24.04Z" transform="translate(-272.653 -262.059)"/><path class="b" d="M703.022,405.865c-5.064-23.423-10.322-39.182-10.4-39.408l.34-.286c-11-2.357-21.159,1.153-29.568,9.156Z" transform="translate(-290.196 -177.973)"/><path class="b" d="M750.746,591.5c-.058.766-.113,1.535-.179,2.294a201.254,201.254,0,0,1-3.029,21.683l37.281-35.225.225.617a79.769,79.769,0,0,0,2.577-19.967q-.01-3.971-.209-7.91Z" transform="translate(-328.486 -263.319)"/><path class="b" d="M695.774,448.317c-1.582-11.587-3.576-22.468-5.625-32.121l-40.535-31.239.112-.643c-6.28,6.133-11.557,14.8-15.439,25.41Z" transform="translate(-276.949 -186.558)"/><path class="b" d="M695.509,634.325l-59.4-43.97c14.466,41.165,43.02,80.834,44.848,83.353C687.907,661.75,692.554,648.314,695.509,634.325Z" transform="translate(-277.78 -280.321)"/><path class="b" d="M692.278,563.078l.035-.036a273.158,273.158,0,0,0,.529-29.415l-71.47-41.208q-.434,5.908-.423,12.153a97.9,97.9,0,0,0,1.8,17.736Z" transform="translate(-270.879 -235.753)"/><ellipse class="c" cx="301.346" cy="17.438" rx="301.346" ry="17.438" transform="translate(37.308 415.26)"/><path class="d" d="M617.079,740.232c0,33.891-47.24,23.408-105.082,23.408s-104.38,10.483-104.38-23.408,47.234-41.263,105.075-41.263S617.079,706.341,617.079,740.232Z" transform="translate(-173.799 -329.748)"/><path class="c" d="M617.079,724.918c0,33.891-47.24,23.408-105.082,23.408s-104.38,10.483-104.38-23.408,47.234-41.262,105.075-41.262S617.079,691.027,617.079,724.918Z" transform="translate(-173.799 -322.78)"/><path class="e" d="M812.974,492.528s0,56.885,3.04,69.478,13.9,58.188,13.9,58.188l14.764-3.04s-2.605-60.359-5.211-69.043S842.5,503.818,849.884,496s-3.473-12.593-3.473-12.593Z" transform="translate(-358.264 -231.653)"/><path class="d" d="M812.974,492.528s0,56.885,3.04,69.478,13.9,58.188,13.9,58.188l14.764-3.04s-2.605-60.359-5.211-69.043S842.5,503.818,849.884,496s-3.473-12.593-3.473-12.593Z" transform="translate(-358.264 -231.653)"/><path class="e" d="M837.091,714.5s-19.541,7.816-20.843,7.816-2.171,22.58-2.171,22.58,1.3,13.461-19.974,17.8,16.935,13.9,23.883,9.119a57.757,57.757,0,0,0,9.987-8.25l2.605-4.342-.868,7.382,3.04.434,6.948-13.9s1.737-10.421-.434-13.027S837.091,714.5,837.091,714.5Z" transform="translate(-346.775 -336.815)"/><path class="f" d="M651.225,512.144l3.04,16.935,14.33-1.3-2.605-12.158Z" transform="translate(-259.046 -216.096)"/><path class="e" d="M758.761,419.064l-2.605,4.342s-75.123-10.422-75.123,17.369-3.474,44.292-4.343,45.595,22.581,15.2,27.791,14.33a18.1,18.1,0,0,0,3.04-10.856c-.434-6.08,3.474-28.66,0-29.962,0,0,4.343-1.737,3.908-4.342,0,0,61.227,8.685,69.043,6.948s13.027-7.382,14.33-10.856,4.093-17.025,4.093-17.025l-.619-22.925-6.948-8.251-10.422-1.3-16.067,9.987Z" transform="translate(-296.235 -194.665)"/><path class="f" d="M910.526,508.909s-6.079,13.9.868,13.9,9.553-12.158,9.553-12.158Z" transform="translate(-401.537 -243.257)"/><path class="g" d="M811.318,228.769l-2.171-2.605s-24.318-54.714-14.765-69.478,51.24-16.935,52.542-16.067,5.211,3.908,4.777,4.777-9.119,3.04-6.079,8.25c0,0-4.343,1.3-5.211-.434s-3.474-2.171-4.342-.434-14.765,5.645-14.765,6.948-2.171,7.816-4.342,8.685.434,13.9,4.777,17.369,7.382,13.027,7.382,13.027l-2.171,19.541Z" transform="translate(-348.792 -75.585)"/><path class="e" d="M834.07,166.535a15.658,15.658,0,0,0-6.747,5.672c-3.206,5.446-1.158,12.9-3.144,19.023-.847,2.612-2.39,4.857-3.663,7.245s-2.312,5.117-1.978,7.87c.327,2.7,1.916,4.99,2.666,7.583,1.291,4.462,0,9.3-1.46,13.7q-1.2,3.612-2.547,7.159c-.522,1.372-1.148,2.841-2.346,3.5l10.276.843c2.987.245,6.287.389,8.634-1.683a9.958,9.958,0,0,0,2.248-3.214c2.32-4.844,2.695-10.556,2.428-16.039s-1.124-10.931-1.077-16.422a16.7,16.7,0,0,1,.72-5.326,30.092,30.092,0,0,1,1.93-3.907c2.342-4.516,3.31-9.73,4.244-14.841.641-3.505,1.662-8.583-.17-11.876S836.542,165.277,834.07,166.535Z" transform="translate(-359.118 -86.42)"/><circle class="f" cx="17.804" cy="17.804" r="17.804" transform="translate(467.303 82.839)"/><path class="f" d="M856,230s2.823,11.073,1.086,16.718,23.665-7.6,23.665-7.6-7.816-10.422-7.816-13.9Z" transform="translate(-377.846 -114.161)"/><path class="g" d="M869.708,253.827s-5.645-4.342-5.645-6.514-3.908-6.948-3.908-6.948-18.672,9.553-19.541,9.553-1.3-5.645-1.3-5.645L819.336,271.63s-6.513,15.632-4.342,27.791,5.645,24.751,3.908,36.041.434,15.2,3.04,13.9,0-5.645,5.645-5.211,24.751-5.645,26.054-8.25,6.514,5.645,6.948,10.422-.869,17.8,0,17.369,2.171-7.816,2.605-11.29,1.737-14.764,0-16.5-.434-4.342.868-5.211,22.58-54.713,22.58-54.713-2.171-11.29-9.553-15.2S869.708,253.827,869.708,253.827Z" transform="translate(-358.982 -121.051)"/><path class="g" d="M920.68,292.162l6.948,7.382v39.081s9.119,46.9,3.474,49.5-8.25,1.737-8.25,1.737,1.3,23.883-2.605,23.883-9.988-1.737-13.462-.868c0,0,.868-8.685,3.474-12.593s2.606-10.856,2.606-10.856-3.908,0-3.908-5.645-.434-9.119-.869-10.422-3.473-24.317-3.473-24.317Z" transform="translate(-399.967 -144.622)"/><path class="e" d="M856.438,162.551c3.006-1.91,6.991-.464,10.483-1.168,3.795-.765,6.958-4.075,10.824-3.887,3.217.157,5.757,2.693,7.839,5.149a36.3,36.3,0,0,1,5,7.152,43.577,43.577,0,0,1,2.968,9.1l2.568,10.418a52.58,52.58,0,0,0,3.333,10.368,17.629,17.629,0,0,0,7.132,8.022,20.985,20.985,0,0,1-12,.039,24.611,24.611,0,0,0,7.223,10.1c-2.9.884-6.016-.007-9.039.185a12.83,12.83,0,0,0-10.4,6.813c-1.578,3.078-1.821,6.644-2.763,9.972a24.87,24.87,0,0,1-22.928,17.587c2.894-4.172,5.932-9.014,4.811-13.967-.677-2.993-2.812-5.506-3.446-8.509-.676-3.21.443-6.484,1.2-9.675s1.075-6.855-.9-9.471c-2.1-2.774-6.306-3.691-7.659-6.9a9.831,9.831,0,0,1-.532-3.7l-.086-5.711a12.067,12.067,0,0,1,.3-3.566,12.737,12.737,0,0,1,2.447-4.071c1.857-2.391,3.662-4.935,4.382-7.876.874-3.571-.483-5.786-2.222-8.677C853.471,167.789,853.828,164.21,856.438,162.551Z" transform="translate(-375.133 -83.336)"/><path class="f" d="M890.48,146.335s19.975,17.369,14.764,23.449-13.461-11.29-13.461-11.29L883.1,151.98Z" transform="translate(-390.175 -78.261)"/><path class="e" d="M697.243,574.252s-23.015,5.645-25.62,10.422c0,0-3.04,14.764-3.04,20.844s-1.3,17.369-13.462,19.541-20.843,6.079-4.342,9.119,21.277,3.908,26.054-2.606,7.382-8.25,7.382-8.25L687.69,632h2.171l8.251-17.8s.868-8.685-1.3-13.9S697.243,574.252,697.243,574.252Z" transform="translate(-280.312 -272.993)"/><path class="g" d="M890.874,145.861s-.664,6.948-10.1,8.25l-2.057-6.513,6.513-5.645Z" transform="translate(-388.181 -76.266)"/><path class="b" d="M0,14.008Z" transform="translate(223.949 275.749)"/><g transform="translate(0 0)"><path class="h" d="M663.842,628.394,771.473,505.268a85.745,85.745,0,1,0-122.59-119.918,85.745,85.745,0,0,0-119.918,122.59L648.711,628.394" transform="translate(-487.351 -359.564)"/><path class="b" d="M663.842,628.394,771.473,505.268a85.745,85.745,0,1,0-122.59-119.918,85.745,85.745,0,0,0-119.918,122.59L648.711,628.394" transform="translate(-503.18 -359.564)"/><path class="c" d="M378,190.679c26.357,0,44.491,14.62,44.491,35.634,0,13.917-6.748,23.546-19.751,31.207-12.23,7.1-16.376,12.3-16.376,21.3h0a5.553,5.553,0,0,1-5.554,5.553H367.336a5.552,5.552,0,0,1-5.548-5.359l-.025-.686c-1.194-14.479,3.866-23.475,16.588-30.926,11.878-7.1,16.868-11.6,16.868-20.312s-8.434-15.111-18.907-15.111c-7.96,0-14.259,3.874-17.148,10.2a12.406,12.406,0,0,1-11.339,7.09h0a12.2,12.2,0,0,1-10.891-17.778C343.687,198.723,357.937,190.679,378,190.679ZM359.513,311.148a14.721,14.721,0,0,1,15.041-14.478c8.364,0,15.112,6.326,15.112,14.478s-6.748,14.479-15.112,14.479S359.513,319.3,359.513,311.148Z" transform="translate(-234.797 -148.711)"/><path class="i" d="M380.974,190.679c28.2,0,47.608,15.644,47.608,38.131,0,14.892-7.221,25.2-21.134,33.394-13.087,7.6-17.524,13.162-17.524,22.788h0a5.942,5.942,0,0,1-5.943,5.942H369.564a5.941,5.941,0,0,1-5.937-5.734l-.027-.734c-1.277-15.493,4.137-25.12,17.75-33.093,12.711-7.6,18.05-12.41,18.05-21.735s-9.025-16.17-20.232-16.17c-8.518,0-15.258,4.145-18.349,10.914a13.276,13.276,0,0,1-12.134,7.587h0c-9.769,0-16.223-10.389-11.654-19.024C344.259,199.286,359.507,190.679,380.974,190.679Zm-19.781,128.91c0-8.648,7.22-15.492,16.094-15.492,8.95,0,16.171,6.769,16.171,15.492s-7.221,15.494-16.171,15.494S361.193,328.313,361.193,319.588Z" transform="translate(-229.521 -153.987)"/></g></g></g></svg>