<svg xmlns="http://www.w3.org/2000/svg" width="640" height="455.532" viewBox="0 0 640 455.532"><defs><style>.a,.j{fill:#3f3d56;}.b{fill:#2f2e41;}.c{fill:#ffb9b9;}.d{fill:#575a89;}.e{opacity:0.1;}.f{fill:#f2f2f2;}.g{fill:#e07c7c;}.h{fill:#fff;}.i{fill:#a0616a;}.j,.k{stroke:#3f3d56;stroke-miterlimit:10;stroke-width:2px;}.k{fill:none;}</style></defs><g transform="translate(0 -16.678)"><ellipse class="a" cx="87.091" cy="11.302" rx="87.091" ry="11.302" transform="translate(457.686 398.951)"/><ellipse class="a" cx="87.091" cy="11.302" rx="87.091" ry="11.302" transform="translate(149.536 449.606)"/><path class="b" d="M980.71,682.358s4.68,16.119,7.8,20.279,5.72,10.919,4.16,11.959-4.68,13.519-.52,14.039,13.519-13.519,14.039-18.2,2.6-21.319,2.6-21.319,3.64-14.559-2.08-15.6-14.559-1.56-14.559-1.56Z" transform="translate(-431.129 -311.456)"/><path class="b" d="M937.168,717.658s-6.76,17.679-8.319,18.719-7.28,10.4,4.16,10.4,17.679-3.12,17.679-3.12l3.64-4.16s0-10.919-1.04-12.479,0-9.359,0-9.359Z" transform="translate(-409.426 -329.597)"/><path class="b" d="M865.1,444.537s-8.319,56.157-1.04,74.356,14.559,23.4,14.559,23.4l55.117,51.477s17.159-8.839,15.6-14.559c0,0-3.64-2.08-4.16-3.64s-7.28-2.08-7.28-2.08-3.12-3.64-3.12-5.72-27.038-39-35.878-41.6c0,0-4.68-5.72-4.16-6.76s-1.56-4.68-1.56-4.68l5.2-20.279,32.758-5.2s13.519-47.837,2.08-51.477S865.1,444.537,865.1,444.537Z" transform="translate(-383.639 -218.187)"/><path class="b" d="M954.971,509.854l1.04,8.32s0,21.839-1.04,23.919-1.56,5.2,0,7.28,4.16,7.28,3.12,9.359,2.08,60.836-2.08,65-2.6,9.359-2.08,9.879-.52,2.6-.52,2.6-21.319,3.64-19.759,0,1.56-5.72,2.6-6.759,0-2.6,0-2.6,1.56-16.639,0-17.679-6.24-50.957-6.24-51.477-1.56-1.56-1.56-3.64,0-8.839-2.6-9.879-2.08-26.519-2.08-26.519Z" transform="translate(-408.51 -247.106)"/><path class="c" d="M897.544,202.027s2.08,15.6,8.32,18.719,10.4,4.68,10.4,4.68l-5.2,18.2-2.08,15.6H885.065l-13-10.4,4.16-17.159,2.08-3.12s2.6-11.439.52-15.079S897.544,202.027,897.544,202.027Z" transform="translate(-388.001 -124.909)"/><path class="d" d="M875.849,253.334l3.64,6.76s2.6-9.359,6.24-10.919,12.479-4.16,12.479-6.24-.52-7.28,1.56-7.28,22.359,6.24,25.479,8.32,3.639,4.16,3.639,4.16l-5.719,59.8s8.32,28.078,5.719,39-4.679,12.479-10.919,14.039-2.6-3.64-20.8,1.56-29.638,3.64-33.8,3.64a14.551,14.551,0,0,0-7.8,2.6c-1.04.52-.52-2.6,3.12-7.28s2.08-12.479,2.08-12.479-4.16-13.519-1.56-18.719,6.24-11.959,3.12-14.039-7.28-17.679-7.28-17.679l-11.439-40.558,23.4-16.119s-1.04,7.28,2.6,8.84S875.849,253.334,875.849,253.334Z" transform="translate(-376.705 -138.258)"/><path class="d" d="M843.308,271.87h-3.12s-5.2,8.839-5.2,15.079,2.6,41.6,2.6,41.6l15.079,15.6,3.64-11.959,1.04-26.519Z" transform="translate(-373.282 -152.634)"/><path class="d" d="M851.62,362.3s-17.159-4.68-16.639,2.6,3.12,16.119,11.439,18.2,10.919-9.36,10.919-9.36S858.379,363.335,851.62,362.3Z" transform="translate(-373.275 -187.942)"/><path class="c" d="M964.709,402.934s-1.04,23.919-7.28,26.519l15.079,3.64s7.28-24.959,6.24-26S964.709,402.934,964.709,402.934Z" transform="translate(-421.887 -204.662)"/><path class="b" d="M1.372,0h9.745a1.372,1.372,0,0,1,1.372,1.372v24.8a1.676,1.676,0,0,1-1.676,1.676H1.676A1.676,1.676,0,0,1,0,26.171V1.372A1.372,1.372,0,0,1,1.372,0Z" transform="translate(452.38 150.133) rotate(-23.598)"/><path class="e" d="M1.372,0h9.745a1.372,1.372,0,0,1,1.372,1.372v24.8a1.676,1.676,0,0,1-1.676,1.676H1.676A1.676,1.676,0,0,1,0,26.171V1.372A1.372,1.372,0,0,1,1.372,0Z" transform="translate(452.38 150.133) rotate(-23.598)"/><path class="b" d="M1.372,0h8.5A1.372,1.372,0,0,1,11.24,1.372V24.905a1.676,1.676,0,0,1-1.676,1.676H1.676A1.676,1.676,0,0,1,0,24.905V1.372A1.372,1.372,0,0,1,1.372,0Z" transform="translate(452.887 151.293) rotate(-23.598)"/><ellipse class="f" cx="2.498" cy="2.532" rx="2.498" ry="2.532" transform="translate(456.988 156.302) rotate(-23.598)"/><path class="e" d="M966.555,264.738l3.38-4.94s12.479,19.239,11.439,32.238-2.08,13.519-2.08,15.6-2.6,2.08,0,4.68,6.24,6.24,4.16,8.32-3.64,2.08-3.12,4.68a34.364,34.364,0,0,1,.52,5.72s-4.42,8.58-5.98,8.58S958.5,353.393,958.5,351.833s1.56-12.479,1.56-14.039.52-6.76,1.56-8.32,1.04-1.04,0-2.6-1.04,0-1.04-1.56.52-3.64-1.04-4.16-3.12,0-2.08-2.6,0-4.68-.52-4.68-3.12-.52-1.56-2.08-3.12-31.718-3.12-31.718S953.036,272.538,966.555,264.738Z" transform="translate(-419.834 -147.842)"/><path class="d" d="M964.891,249.452l8.84,4.16s12.479,19.239,11.439,32.238-2.08,13.519-2.08,15.6-2.6,2.08,0,4.68,6.24,6.24,4.16,8.32-3.64,2.08-3.12,4.68a34.35,34.35,0,0,1,.52,5.72s-4.68,24.959-6.24,24.959-16.119-2.6-16.119-4.16,1.56-12.479,1.56-14.039.52-6.76,1.56-8.32,1.04-1.04,0-2.6-1.04,0-1.04-1.56.52-3.64-1.04-4.16-3.12,0-2.08-2.6,0-4.68-.52-4.68-3.12-.52-1.56-2.08-3.12-31.718-3.12-31.718S951.371,257.251,964.891,249.452Z" transform="translate(-421.03 -143.735)"/><path class="c" d="M835.227,356.023a2.18,2.18,0,0,1-2.507-1.131c-2.389-4.778-8.863-18.79-2.828-19.221,5.568-.4,10.527,10.459,12.552,15.587a2.477,2.477,0,0,1-1.674,3.307Z" transform="translate(-370.266 -177.957)"/><circle class="c" cx="19.239" cy="19.239" r="19.239" transform="translate(475.745 53.199)"/><path class="b" d="M869.388,164.818a37.9,37.9,0,0,1-7.4,1.746c-1.895.3-4.112.447-5.444-.933-1.307-1.354-1.1-3.613-.2-5.271s2.319-2.957,3.391-4.5c1.685-2.434,2.679-5.66,5.373-6.886a9.882,9.882,0,0,1,3.5-.653c6.991-.446,14.268-.847,20.742,1.828a15.267,15.267,0,0,1,6.261,4.455,16.63,16.63,0,0,1,2.5,4.852,31.667,31.667,0,0,1-5.7,30.408c-2.359-2.126-1.333-7.038-4.319-8.121-.979-.355-2.087-.108-3.09-.389-3.153-.884-2.995-5.757-5.62-7.715a5.012,5.012,0,0,1-1.495-1.228,3.054,3.054,0,0,1-.291-1.549c-.019-1.825.838-6.462-.9-7.714C874.923,161.87,871.091,164.2,869.388,164.818Z" transform="translate(-381.473 -103.46)"/><path class="g" d="M499.815,59h158.6v83.219H646.955v30.755L616.2,142.219H499.815Z" transform="translate(-198.41 -42.322)"/><path class="h" d="M687.961,176.886l-2.8-2.524c-9.938-9.124-16.5-15.046-16.5-22.423a10.494,10.494,0,0,1,10.613-10.678,11.415,11.415,0,0,1,8.684,4.077,11.415,11.415,0,0,1,8.684-4.077,10.495,10.495,0,0,1,10.613,10.678c0,7.377-6.561,13.3-16.5,22.423Z" transform="translate(-307.257 -100.787)"/><path class="g" d="M0,369l152.564-43.33L175.3,405.721l-11.022,3.13,8.4,29.585-37.988-21.182-111.957,31.8Z" transform="translate(0 -148.181)"/><path class="h" d="M205.765,474.779l-3.382-1.664c-12.052-6.062-19.982-9.966-22-17.062a10.495,10.495,0,0,1,7.292-13.171,11.416,11.416,0,0,1,9.467,1.549,11.415,11.415,0,0,1,7.239-6.294,10.495,10.495,0,0,1,13.127,7.372c2.015,7.1-2.678,14.586-9.745,26.077Z" transform="translate(-113.248 -218.465)"/><path class="i" d="M346.962,357.273s-5.157,15.47-2.292,18.908-17.189-10.314-17.189-10.314l10.887-12.606Z" transform="translate(-171.819 -184.944)"/><circle class="b" cx="25.726" cy="25.726" r="25.726" transform="translate(137.657 120.852)"/><path class="i" d="M423.183,598.8,410,609.11l-7.449-12.032,13.178-9.168Z" transform="translate(-159.801 -252.282)"/><path class="b" d="M460.449,776.379,463.887,793l9.741,13.179s26.357,8.022,8.595,12.032-21.773-2.865-21.773-2.865l-12.606-10.887v14.9h-8.022l-1.719-21.2s-1.146-6.3,4.011-13.179l1.146-10.314Z" transform="translate(-215.689 -352.225)"/><path class="i" d="M351.81,433.007l4.584,26.357s48.7-5.157,52.141,4.584,4.584,12.606,4.584,12.606l-9.741,3.438-4.584-8.595a10.884,10.884,0,0,0-8.595.573c-4.584,2.292-44.693,8.022-47.557.573s-10.887-34.952-10.887-34.952l12.033-9.741Z" transform="translate(-173.516 -214.553)"/><path class="e" d="M351.81,433.007l4.584,26.357s48.7-5.157,52.141,4.584,4.584,12.606,4.584,12.606l-9.741,3.438-4.584-8.595a10.884,10.884,0,0,0-8.595.573c-4.584,2.292-44.693,8.022-47.557.573s-10.887-34.952-10.887-34.952l12.033-9.741Z" transform="translate(-173.516 -214.553)"/><path class="b" d="M409.669,557.115l4.011,13.752,10.314,52.714s1.146,38.963,2.865,43.547,1.719,5.157,0,6.876-5.157,7.449,0,10.887,23.492,7.449,24.065,3.438a50.508,50.508,0,0,0,0-13.179c-.573-2.865,1.719-47.557,1.719-47.557l-6.876-68.185-23.492-10.887Z" transform="translate(-204.445 -262.456)"/><path class="e" d="M409.669,557.115l4.011,13.752,10.314,52.714s1.146,38.963,2.865,43.547,1.719,5.157,0,6.876-5.157,7.449,0,10.887,23.492,7.449,24.065,3.438a50.508,50.508,0,0,0,0-13.179c-.573-2.865,1.719-47.557,1.719-47.557l-6.876-68.185-23.492-10.887Z" transform="translate(-204.445 -262.456)"/><path class="b" d="M425.255,473.458l12.606,24.065s72.2,32.087,65.893,45.266S462.5,580.605,462.5,580.605s-1.719,9.741-6.876,6.876S437.861,569.719,439.007,568s5.157-5.73,6.876-5.157,21.773-14.9,21.773-14.9l-34.379-8.595s-41.255-1.146-43.546-20.627,0-22.919,0-22.919l-2.865-6.3,23.492-14.325Z" transform="translate(-195.393 -232.658)"/><path class="b" d="M449.807,631.185l-12.033,10.887s-10.314-4.584-16.616-2.865-17.189,2.865-17.189,2.865l1.719,9.74,14.619-2.7-11.754,16.449s0,25.784,7.449,25.784,5.157-15.47,5.157-15.47l22.919-17.763s11.46-4.584,12.606-4.584S449.807,631.185,449.807,631.185Z" transform="translate(-202.182 -295.27)"/><circle class="i" cx="19.481" cy="19.481" r="19.481" transform="translate(153.37 137.95)"/><path class="d" d="M322.953,359.718s9.168-2.292,12.033,0,3.438,7.449,7.449,8.022,7.449.573,8.022,1.146S364.207,385.5,364.207,385.5s8.022,4.584,9.741,10.887,18.908,27.5,21.2,29.795-14.9,13.751-20.627,17.762-22.346,5.73-27.5-3.438S313.785,371.751,322.953,359.718Z" transform="translate(-169.297 -187.103)"/><path class="i" d="M347.059,418.754l4.584,26.357s48.7-5.157,52.141,4.584,4.584,12.606,4.584,12.606l-9.741,3.438-4.584-8.595a10.883,10.883,0,0,0-8.595.573c-4.584,2.292-44.693,8.022-47.557.573s-10.887-34.952-10.887-34.952l12.033-9.741Z" transform="translate(-171.63 -208.895)"/><path class="d" d="M330.624,362.865s13.815,29.1,12.669,37.125-5.157,2.292-5.157,2.292-5.157-8.022-7.449-3.438-5.157,10.887-7.449,10.314-14.9-42.974-8.022-46.984S330.624,362.865,330.624,362.865Z" transform="translate(-166.145 -187.839)"/><circle class="b" cx="25.726" cy="25.726" r="25.726" transform="translate(109.787 86.98)"/><path class="b" d="M249.684,280.53a25.727,25.727,0,0,0,39.727-13.508,25.727,25.727,0,1,1-50.184-10.55,25.718,25.718,0,0,0,10.457,24.058Z" transform="translate(-136.361 -146.522)"/><circle class="b" cx="18.866" cy="18.866" r="18.866" transform="translate(137.657 132)"/><ellipse class="b" cx="16.722" cy="13.077" rx="16.722" ry="13.077" transform="translate(155.665 130.714)"/><ellipse class="i" cx="3.724" cy="6.589" rx="3.724" ry="6.589" transform="translate(169.413 152.847)"/><path class="b" d="M440.965,496.622s10.143-5.82,12.026-4.36,2.72,6.025,2.72,6.025l-11.723,4.6-3.438-6.3Z" transform="translate(-216.704 -240.03)"/><line class="j" y1="70.008" transform="translate(175.925 385.171)"/><circle class="g" cx="9.9" cy="9.9" r="9.9" transform="translate(166.024 375.271)"/><path class="a" d="M341.065,766.533s-1.414-30.419-30.408-26.883" transform="translate(-165.141 -338.214)"/><line class="j" y1="70.008" transform="translate(477.441 333.311)"/><circle class="g" cx="9.9" cy="9.9" r="9.9" transform="translate(467.541 323.41)"/><path class="a" d="M841.065,680.533s-1.414-30.419-30.408-26.883" transform="translate(-363.624 -304.075)"/><line class="j" y1="140.017" transform="translate(599.692 264.903)"/><path class="g" d="M9.9,0A9.9,9.9,0,1,1,0,9.9,9.9,9.9,0,0,1,9.9,0Z" transform="translate(589.792 255.003)"/><path class="a" d="M1063.809,562.4s1.414-30.419,30.407-26.883" transform="translate(-464.117 -257.181)"/><path class="k" d="M1063.532,702.395s-6.364-55.973,30.408-58.8" transform="translate(-463.839 -300.196)"/><path class="g" d="M9.9,0A9.9,9.9,0,1,1,0,9.9,9.9,9.9,0,0,1,9.9,0Z" transform="translate(620.2 333.497)"/></g></svg>